<?xml version="1.0" encoding="UTF-8"?>
<!DOCTYPE svg PUBLIC "-//W3C//DTD SVG 1.1//EN" "http://www.w3.org/Graphics/SVG/1.1/DTD/svg11.dtd">
<!-- Creator: CorelDRAW X7 -->
<svg xmlns="http://www.w3.org/2000/svg" xml:space="preserve" width="132.821mm" height="132.821mm" version="1.1" style="shape-rendering:geometricPrecision; text-rendering:geometricPrecision; image-rendering:optimizeQuality; fill-rule:evenodd; clip-rule:evenodd"
viewBox="0 0 13282 13282"
 xmlns:xlink="http://www.w3.org/1999/xlink">
 <defs>
  <style type="text/css">
   <![CDATA[
    .fil0 {fill:#2B2A29}
   ]]>
  </style>
 </defs>
 <g id="Layer_x0020_1">
  <metadata id="CorelCorpID_0Corel-Layer"/>
  <g id="_2003365001472">
   <g>
    <path class="fil0" d="M9576 2287c0,482 -1308,873 -2922,873 -1614,0 -2922,-391 -2922,-873 0,-522 5,-1045 5,-1567 92,458 1363,821 2917,821 1555,0 2825,-363 2917,-821 0,522 5,1045 5,1567z"/>
    <path class="fil0" d="M9550 4201c0,482 -1308,873 -2922,873 -1614,0 -2922,-391 -2922,-873 0,-521 5,-1044 5,-1567 92,458 1363,821 2917,821 1555,0 2825,-363 2917,-820 0,522 5,1045 5,1566z"/>
    <path class="fil0" d="M9550 6103c0,483 -1308,874 -2922,874 -1614,0 -2922,-391 -2922,-874 0,-521 5,-1044 5,-1566 92,458 1363,821 2917,821 1555,0 2825,-363 2917,-821 0,522 5,1045 5,1566z"/>
    <ellipse class="fil0" cx="6654" cy="647" rx="2696" ry="647"/>
   </g>
   <g>
    <path class="fil0" d="M2839 13282l2813 0c0,0 322,-73 326,-317 5,-244 -18,-2671 -18,-2671 0,0 -129,-827 -643,-1461 -515,-634 -1131,-1471 -1131,-1471 0,0 -258,-368 -809,-138 -552,230 -303,883 -147,1039 156,156 763,1048 763,1048 0,0 73,174 -19,331 -91,156 -413,386 -413,386 0,0 -193,101 -368,-28 -175,-128 -1930,-2279 -1930,-2279l-11 -3223c0,0 -8,-491 -559,-583 -552,-92 -717,386 -727,570 -9,184 -18,4807 -18,4807 0,0 -3,144 202,469 206,325 2298,2960 2298,2960 0,0 46,65 102,276 55,212 156,258 289,285z"/>
    <path class="fil0" d="M10443 13279l-2813 0c0,0 -322,-74 -326,-318 -5,-243 18,-2670 18,-2670 0,0 129,-827 644,-1462 514,-634 1130,-1471 1130,-1471 0,0 258,-367 809,-137 552,229 304,882 147,1038 -156,157 -763,1048 -763,1048 0,0 -73,175 19,331 92,156 413,386 413,386 0,0 193,101 368,-27 175,-129 1931,-2280 1931,-2280l10 -3223c0,0 8,-491 559,-583 552,-92 717,386 727,570 9,184 18,4808 18,4808 0,0 4,144 -202,469 -206,325 -2298,2960 -2298,2960 0,0 -46,64 -101,276 -56,211 -157,257 -290,285z"/>
   </g>
  </g>
 </g>
</svg>
