<?xml version="1.0" encoding="UTF-8"?>
<!DOCTYPE svg PUBLIC "-//W3C//DTD SVG 1.1//EN" "http://www.w3.org/Graphics/SVG/1.1/DTD/svg11.dtd">
<!-- Creator: CorelDRAW X7 -->
<svg xmlns="http://www.w3.org/2000/svg" xml:space="preserve" width="132.821mm" height="132.821mm" version="1.1" style="shape-rendering:geometricPrecision; text-rendering:geometricPrecision; image-rendering:optimizeQuality; fill-rule:evenodd; clip-rule:evenodd"
viewBox="0 0 13282 13282"
 xmlns:xlink="http://www.w3.org/1999/xlink">
 <defs>
  <style type="text/css">
   <![CDATA[
    .fil0 {fill:#2B2A29}
   ]]>
  </style>
 </defs>
 <g id="Layer_x0020_1">
  <metadata id="CorelCorpID_0Corel-Layer"/>
  <g id="_2003365043280">
   <g>
    <path class="fil0" d="M9931 5294c0,541 -1466,979 -3275,979 -1809,0 -3276,-438 -3276,-979 0,-584 6,-1171 6,-1756 103,513 1527,920 3270,920 1742,0 3167,-407 3269,-920 0,585 6,1172 6,1756z"/>
    <path class="fil0" d="M9902 7440c0,540 -1467,979 -3276,979 -1809,0 -3275,-439 -3275,-979 0,-584 6,-1171 6,-1756 102,513 1527,920 3269,920 1743,0 3167,-407 3270,-920 0,585 6,1172 6,1756z"/>
    <path class="fil0" d="M9902 9572c0,541 -1467,979 -3276,979 -1809,0 -3275,-438 -3275,-979 0,-584 6,-1170 6,-1756 102,514 1527,920 3269,920 1743,0 3167,-406 3270,-919 0,585 6,1171 6,1755z"/>
    <ellipse class="fil0" cx="6656" cy="3456" rx="3022" ry="725"/>
   </g>
   <path class="fil0" d="M0 8l1905 0c135,0 356,-31 445,31l478 474c84,83 184,149 231,259l-1722 -3 1704 1708 -262 286c-82,83 -209,189 -265,281 -181,-102 -1581,-1616 -1754,-1712l0 1735c-113,-47 -387,-363 -492,-470 -285,-292 -268,-145 -268,-684 0,-635 0,-1270 0,-1905z"/>
   <path class="fil0" d="M0 13274l1905 0c135,0 356,31 445,-30l478 -475c84,-83 184,-149 232,-259l-1723 3 1704 -1708 -262 -286c-82,-83 -209,-189 -265,-281 -181,102 -1581,1616 -1754,1712l0 -1735c-113,47 -387,363 -492,470 -285,292 -268,146 -268,685 0,634 0,1269 0,1904z"/>
   <path class="fil0" d="M13282 8l-1905 0c-135,0 -356,-31 -445,31l-478 474c-84,83 -184,149 -231,259l1723 -3 -1705 1708 262 286c82,83 209,189 265,281 181,-102 1581,-1616 1754,-1712l0 1735c113,-47 387,-363 492,-470 285,-292 268,-145 268,-684 0,-635 0,-1270 0,-1905z"/>
   <path class="fil0" d="M13282 13274l-1905 0c-135,0 -356,31 -445,-30l-478 -475c-84,-83 -184,-149 -231,-259l1723 3 -1705 -1708 262 -286c82,-83 209,-189 265,-281 181,102 1581,1616 1754,1712l0 -1735c113,47 387,363 492,470 285,292 268,146 268,685 0,634 0,1269 0,1904z"/>
  </g>
 </g>
</svg>
