<?xml version="1.0" encoding="UTF-8"?>
<!DOCTYPE svg PUBLIC "-//W3C//DTD SVG 1.1//EN" "http://www.w3.org/Graphics/SVG/1.1/DTD/svg11.dtd">
<!-- Creator: CorelDRAW X7 -->
<svg xmlns="http://www.w3.org/2000/svg" xml:space="preserve" width="132.821mm" height="132.821mm" version="1.1" style="shape-rendering:geometricPrecision; text-rendering:geometricPrecision; image-rendering:optimizeQuality; fill-rule:evenodd; clip-rule:evenodd"
viewBox="0 0 13282 13282"
 xmlns:xlink="http://www.w3.org/1999/xlink">
 <defs>
  <style type="text/css">
   <![CDATA[
    .str0 {stroke:#2B2A29;stroke-width:20}
    .fil0 {fill:#2B2A29}
   ]]>
  </style>
 </defs>
 <g id="Layer_x0020_1">
  <metadata id="CorelCorpID_0Corel-Layer"/>
  <path class="fil0 str0" d="M476 2444c177,7235 5904,10695 6160,10846l5 3 5 -3c256,-151 5983,-3611 6160,-10846 -7118,-3263 -5165,-3284 -12330,0zm6165 1234c1637,0 2963,1326 2963,2963 0,1637 -1326,2963 -2963,2963 -1637,0 -2963,-1326 -2963,-2963 0,-1637 1326,-2963 2963,-2963zm-537 3256c-242,-162 -569,-700 -914,-700 -354,0 -805,425 -263,962l700 700c515,517 770,158 1210,-283 213,-213 406,-406 619,-619 208,-208 397,-397 605,-605 256,-256 545,-433 545,-773 0,-268 -223,-484 -484,-484 -265,0 -428,225 -572,369 -197,197 -1333,1358 -1446,1433z"/>
 </g>
</svg>
